<svg xmlns="http://www.w3.org/2000/svg" width="60.001" height="60.011" viewBox="0 0 60.001 60.011">
    <path fill="#dde3ff" d="M58.9-6.855l-14.58-14.59a9.352 9.352 0 0 0-6.633-2.742 9.28 9.28 0 0 0-5.168 1.559L22.5-32.648v-8.6L7.5-52.5 0-45l11.25 15h8.6l10.02 10.02a9.372 9.372 0 0 0 1.2 11.8L45.656 6.41a3.746 3.746 0 0 0 2.648 1.1 3.7 3.7 0 0 0 2.648-1.1l7.958-7.957a3.766 3.766 0 0 0-.01-5.308zM18.75-33.973v.223h-5.625l-8.168-10.9 2.895-2.895 10.9 8.168zM48.293 3.75L33.715-10.84a5.576 5.576 0 0 1-1.652-3.973 5.556 5.556 0 0 1 1.652-3.973 5.576 5.576 0 0 1 3.973-1.652 5.556 5.556 0 0 1 3.973 1.652L56.25-4.207zM7.5-1.875A1.881 1.881 0 0 0 9.375 0a1.881 1.881 0 0 0 1.875-1.875A1.881 1.881 0 0 0 9.375-3.75 1.881 1.881 0 0 0 7.5-1.875zM32.437-44.66a13.82 13.82 0 0 1 9.82-4.09 14.13 14.13 0 0 1 2.426.211l-8.121 8.133 1.618 9.726 9.738 1.617 8.121-8.121a13.808 13.808 0 0 1-3.879 12.247 13.63 13.63 0 0 1-3.516 2.52l2.766 2.766a16.968 16.968 0 0 0 3.4-2.637 17.541 17.541 0 0 0 4.652-16.793 3.173 3.173 0 0 0-2.238-2.3 3.218 3.218 0 0 0-3.129.82l-7.49 7.491-5.18-.867-.867-5.18 7.488-7.488a3.2 3.2 0 0 0 .82-3.105 3.2 3.2 0 0 0-2.309-2.25 17.571 17.571 0 0 0-16.781 4.652 17.194 17.194 0 0 0-3.527 5.156v7.945l2.59 2.59a13.8 13.8 0 0 1 3.598-13.043zm-19.9 46.9a5.281 5.281 0 0 1-7.289 0 5.17 5.17 0 0 1 0-7.289l17.123-17.123-2.648-2.648L2.6-7.7a8.926 8.926 0 0 0 0 12.6 8.846 8.846 0 0 0 6.295 2.6 8.809 8.809 0 0 0 6.293-2.613L27.117-7.031a13.582 13.582 0 0 1-1.817-3.492z" transform="translate(0 52.5)"/>
</svg>
