<svg xmlns="http://www.w3.org/2000/svg" width="75" height="60" viewBox="0 0 75 60">
    <path fill="#ffd6bf" d="M69.773-18l-1.861-8.066a7.816 7.816 0 0 0-7.281-5.814H40.293a7.815 7.815 0 0 0-7.28 5.814L31.1-17.794A8.734 8.734 0 0 0 26.25-10v6.458A5.762 5.762 0 0 0 30 1.586v4.039A1.876 1.876 0 0 0 31.875 7.5h1.875a1.876 1.876 0 0 0 1.875-1.875v-3.75h30v3.75A1.876 1.876 0 0 0 67.5 7.5h1.875a1.876 1.876 0 0 0 1.875-1.875V1.586A5.762 5.762 0 0 0 75-3.541V-10a9.5 9.5 0 0 0-5.227-8zm-33.106-7.219a3.929 3.929 0 0 1 3.654-2.906H60.6a3.929 3.929 0 0 1 3.654 2.906l1.496 6.469H35.174zM71.25-3.541a1.67 1.67 0 0 1-1.666 1.666H31.666A1.67 1.67 0 0 1 30-3.541V-10a5.01 5.01 0 0 1 5-5h31.249a5.01 5.01 0 0 1 5 5zM37.5-46.875v11.25h3.75v-11.25a5.627 5.627 0 0 0-5.625-5.625h-30A5.627 5.627 0 0 0 0-46.875V-.937A.938.938 0 0 0 .937 0h1.875a.938.938 0 0 0 .938-.937v-45.938a1.876 1.876 0 0 1 1.875-1.875h30a1.876 1.876 0 0 1 1.875 1.875zM23.906-41.25a1.407 1.407 0 0 0-1.406 1.406v4.687a1.407 1.407 0 0 0 1.406 1.406h4.687A1.407 1.407 0 0 0 30-35.156v-4.687a1.407 1.407 0 0 0-1.406-1.406zM17.344-30h-4.688a1.407 1.407 0 0 0-1.406 1.406v4.687a1.407 1.407 0 0 0 1.406 1.407h4.687a1.407 1.407 0 0 0 1.406-1.406v-4.687A1.407 1.407 0 0 0 17.344-30zm0 11.25h-4.688a1.407 1.407 0 0 0-1.406 1.406v4.687a1.407 1.407 0 0 0 1.406 1.406h4.687a1.407 1.407 0 0 0 1.406-1.406v-4.687a1.407 1.407 0 0 0-1.405-1.406zm18.75 7.5a2.345 2.345 0 0 0-2.344 2.344 2.345 2.345 0 0 0 2.344 2.344 2.345 2.345 0 0 0 2.344-2.344 2.345 2.345 0 0 0-2.344-2.344zm29.062 0a2.345 2.345 0 0 0-2.344 2.344 2.345 2.345 0 0 0 2.344 2.344A2.345 2.345 0 0 0 67.5-8.906a2.345 2.345 0 0 0-2.344-2.344zm-47.812-30h-4.688a1.407 1.407 0 0 0-1.406 1.406v4.687a1.407 1.407 0 0 0 1.406 1.406h4.687a1.407 1.407 0 0 0 1.406-1.406v-4.687a1.407 1.407 0 0 0-1.405-1.406zM29.359-26.9a13.643 13.643 0 0 1 .6-1.869A1.427 1.427 0 0 0 28.594-30h-4.688a1.407 1.407 0 0 0-1.406 1.406v4.687a1.407 1.407 0 0 0 1.406 1.407h4.435z" transform="translate(0 52.5)"/>
</svg>
