<svg xmlns="http://www.w3.org/2000/svg" width="220" height="56" viewBox="0 0 220 56">
    <g transform="translate(-542 -293)">
        <rect width="220" height="56" fill="#3a5897" rx="10" transform="translate(542 293)"/>
        <text fill="#fff" font-family="Gilroy-Medium" font-size="20px" font-weight="500" letter-spacing="-0.03em" transform="translate(562 328)">
            <tspan x="0" y="0">Facebook</tspan>
        </text>
        <path fill="#fff" d="M11.018 30h-4.8a1.457 1.457 0 0 1-1.455-1.455V17.709h-2.8A1.457 1.457 0 0 1 .5 16.253V11.61a1.457 1.457 0 0 1 1.455-1.455h2.8V7.83a7.917 7.917 0 0 1 2.096-5.673A7.54 7.54 0 0 1 12.411 0l3.664.006a1.457 1.457 0 0 1 1.453 1.455v4.311a1.457 1.457 0 0 1-1.455 1.455h-2.467c-.752 0-.944.151-.985.2-.068.077-.148.293-.148.892v1.837h3.414a1.479 1.479 0 0 1 .72.183 1.46 1.46 0 0 1 .749 1.273v4.643a1.457 1.457 0 0 1-1.456 1.453h-3.427v10.837A1.457 1.457 0 0 1 11.018 30zm-4.5-1.759h4.2v-11.32a.973.973 0 0 1 .972-.972h3.91v-4.036h-3.915a.973.973 0 0 1-.971-.972V8.318a3 3 0 0 1 .586-2.056 2.981 2.981 0 0 1 2.3-.792h2.163v-3.7l-3.359-.005c-3.634 0-5.893 2.326-5.893 6.071v3.112a.973.973 0 0 1-.971.972H2.259v4.03h3.286a.973.973 0 0 1 .971.972zm9.553-26.476zm0 0" transform="translate(718.199 308)"/>
    </g>
</svg>
