<svg xmlns="http://www.w3.org/2000/svg" id="Logo_-_1" width="260" height="78" viewBox="0 0 260 78">
    <defs>
        <style>
            .cls-1{fill:#7bbb42}.cls-1,.cls-2,.cls-3,.cls-4{fill-rule:evenodd}.cls-2{fill:#db6a2b}.cls-3{fill:#0d5d35}.cls-4{fill:#54974b}
        </style>
    </defs>
    <path id="Fill-1" d="M41.471 6.336a19.223 19.223 0 0 0 2.849-1.9A26.026 26.026 0 0 1 59.9.013a24.75 24.75 0 0 1 9.175 2 11.459 11.459 0 0 0-7.346 1.409c-1.334.941-1.808 2.178-2.955 3.193-2.094 1.848-6.553 2.764-10.589 2.171" class="cls-1" transform="translate(31.542)"/>
    <path id="Fill-3" d="M81.425 34.161V29.4a5.146 5.146 0 0 0 1.711-.615 5.986 5.986 0 0 0 1.392-1.216 4.554 4.554 0 0 0 1.172-2.936l.132-2.912a19.871 19.871 0 0 1 .4-2.734 8.457 8.457 0 0 1 1.087-2.433 9.123 9.123 0 0 1 2.785-2.9 7 7 0 0 1 3.793-1.012v4.868a4.727 4.727 0 0 0-2.785 1.8 3.622 3.622 0 0 0-.743 1.5 9.855 9.855 0 0 0-.159 1.94v1.067a16.282 16.282 0 0 1-.372 3.937 8.373 8.373 0 0 1-1.591 2.98 9.094 9.094 0 0 1-3 2.611 8.354 8.354 0 0 1-3.819.807" class="cls-2" transform="translate(61.931 9.77)"/>
    <path id="Fill-5" d="M92.789 15.119a2.553 2.553 0 0 1-2.034-.842 2.92 2.92 0 0 1-.732-1.981 2.719 2.719 0 0 1 .718-1.9 2.634 2.634 0 0 1 2.048-.787 2.4 2.4 0 0 1 1.925.868 3.044 3.044 0 0 1-.04 3.813 2.325 2.325 0 0 1-1.885.829zm-2.36 21.387h4.611V16.449h-4.611z" class="cls-2" transform="translate(68.47 7.425)"/>
    <path id="Fill-7" d="M109.75 32.927a9.977 9.977 0 0 1-4.382.949 11.525 11.525 0 0 1-6.979-2.276 8.5 8.5 0 0 1-3.679-5.966 17.65 17.65 0 0 1-.136-2.007 10.848 10.848 0 0 1 3.057-8.054 10.223 10.223 0 0 1 7.52-2.929 11.045 11.045 0 0 1 7.587 2.848 9.081 9.081 0 0 1 3.206 7.077v10.6a7.241 7.241 0 0 1-2.992 5.911 10.639 10.639 0 0 1-6.79 2.251h-.4a18.148 18.148 0 0 1-2.047-.095 9.438 9.438 0 0 1-1.86-.448v-4.525a11.264 11.264 0 0 0 1.8.434 14.114 14.114 0 0 0 1.907.108 9.92 9.92 0 0 0 2.056-.23 7.085 7.085 0 0 0 1.514-.447 5.615 5.615 0 0 0 1.515-1 2.761 2.761 0 0 0 .7-1.953v-10.3a4.948 4.948 0 0 0-1.975-4.027 7.125 7.125 0 0 0-4.6-1.587 5.386 5.386 0 0 0-4.031 1.79 5.833 5.833 0 0 0-1.7 4.149 5.031 5.031 0 0 0 .082.867 5.929 5.929 0 0 0 2.3 3.932 6.394 6.394 0 0 0 4 1.329 5.557 5.557 0 0 0 4.328-1.79z" class="cls-2" transform="translate(71.932 9.77)"/>
    <path id="Fill-9" d="M118.287 34.161a10.06 10.06 0 0 1-7.929-3.308 10.67 10.67 0 0 1-2.633-7.328 10.917 10.917 0 0 1 2.688-7.464 10.282 10.282 0 0 1 8.12-3.417 10.059 10.059 0 0 1 7.928 3.308 10.666 10.666 0 0 1 2.634 7.327 10.917 10.917 0 0 1-2.689 7.464 10.28 10.28 0 0 1-8.119 3.418m.462-17.067a5.944 5.944 0 0 0-4.7 1.971 6.331 6.331 0 0 0-1.575 4.351 6.107 6.107 0 0 0 1.493 4.187 5.8 5.8 0 0 0 4.562 1.889 5.946 5.946 0 0 0 4.7-1.971 6.329 6.329 0 0 0 1.575-4.352 6.117 6.117 0 0 0-1.493-4.187 5.806 5.806 0 0 0-4.562-1.888" class="cls-2" transform="translate(81.933 9.77)"/>
    <path id="Fill-11" d="M125.735 34.161l-4.862-.027V22.392a10.614 10.614 0 0 1 .948-4.659 8.93 8.93 0 0 1 3.029-3.42 10.075 10.075 0 0 1 2.392-1.28 7.371 7.371 0 0 1 2.443-.39c.225 0 .495.013.806.04s.668.077 1.066.148V17.6a4.856 4.856 0 0 0-1.352-.188 4.261 4.261 0 0 0-2.6.942 4.879 4.879 0 0 0-1.39 1.536 4.013 4.013 0 0 0-.481 1.993z" class="cls-2" transform="translate(91.935 9.77)"/>
    <path id="Fill-13" d="M128.46 9.609h4.533v5.4h3.13v4.729h-3.13v8.94a2.906 2.906 0 0 0 .257 1.266 4.051 4.051 0 0 0 .823 1.1 3.475 3.475 0 0 0 2.536 1.077h.755V36.5h-.729a7.63 7.63 0 0 1-2.374-.377 12.408 12.408 0 0 1-3.157-1.642 5.751 5.751 0 0 1-1.808-2.262 7.714 7.714 0 0 1-.836-3.447z" class="cls-2" transform="translate(97.705 7.425)"/>
    <path id="Fill-15" d="M150.411 27.5v5.465a10.951 10.951 0 0 1-4.837 1.194 10.24 10.24 0 0 1-6.834-2.733 10.594 10.594 0 0 1-2.839-3.621 11.147 11.147 0 0 1-.867-4.6A10.593 10.593 0 0 1 145.6 12.644a10.652 10.652 0 0 1 7.623 3.037 9.9 9.9 0 0 1 3.18 7.443v10.267h-4.627v-10.4a5.39 5.39 0 0 0-1.852-4.152 6.294 6.294 0 0 0-4.377-1.685 5.8 5.8 0 0 0-4.285 1.778 5.912 5.912 0 0 0-1.761 4.324 6.3 6.3 0 0 0 1.774 4.5 5.764 5.764 0 0 0 4.351 1.871 6.606 6.606 0 0 0 2.668-.491 6.142 6.142 0 0 0 2.116-1.632" class="cls-2" transform="translate(102.705 9.77)"/>
    <path id="Fill-17" d="M0 5.057h8.1a26.16 26.16 0 0 1 16.269 5.149q6.795 5.148 6.795 12.657 0 7.365-6.175 12.71A22.232 22.232 0 0 1 9.916 40.92H0zM8.1 34.09q0 .179.885.179a16.591 16.591 0 0 0 5-.894 14.631 14.631 0 0 0 5.976-3.432 9.75 9.75 0 0 0 2.878-7.152 9 9 0 0 0-4.117-7.651 17.663 17.663 0 0 0-10.444-3.432l-.178.072z" class="cls-3" transform="translate(0 3.908)"/>
    <path id="Fill-19" d="M34.865 41.034q-8.12 0-12.884-5.376A17.337 17.337 0 0 1 17.7 23.751a17.739 17.739 0 0 1 4.368-12.129q4.9-5.554 13.193-5.554 8.117 0 12.884 5.376a17.342 17.342 0 0 1 4.281 11.907 17.738 17.738 0 0 1-4.369 12.129q-4.9 5.554-13.193 5.554m.75-27.733a9.665 9.665 0 0 0-7.633 3.2 10.288 10.288 0 0 0-2.559 7.071 9.926 9.926 0 0 0 2.427 6.8 9.428 9.428 0 0 0 7.413 3.069 9.665 9.665 0 0 0 7.633-3.2 10.29 10.29 0 0 0 2.559-7.072 9.932 9.932 0 0 0-2.427-6.8 9.435 9.435 0 0 0-7.412-3.069" class="cls-3" transform="translate(13.463 4.69)"/>
    <path id="Fill-21" d="M66.364 37.85c-2.139 1.029-4.6 2.329-10.894 2.722a17.2 17.2 0 0 1-11.341-3.7 13.812 13.812 0 0 1-5.978-9.695 28.784 28.784 0 0 1-.22-3.261q0-8.151 4.967-13.087a16.609 16.609 0 0 1 12.22-4.759 17.953 17.953 0 0 1 12.33 4.63 14.76 14.76 0 0 1 5.209 11.5v17.23a11.765 11.765 0 0 1-4.86 9.606 17.294 17.294 0 0 1-11.035 3.654h-.657a29.483 29.483 0 0 1-3.328-.154 15.42 15.42 0 0 1-3.022-.727V44.45a18.375 18.375 0 0 0 2.924.7 22.92 22.92 0 0 0 3.1.176 16.039 16.039 0 0 0 3.341-.375 11.473 11.473 0 0 0 2.461-.727 9.056 9.056 0 0 0 2.461-1.624 4.484 4.484 0 0 0 1.143-3.172V22.682a8.041 8.041 0 0 0-3.209-6.544A11.581 11.581 0 0 0 54.5 13.56a8.747 8.747 0 0 0-6.549 2.908 9.478 9.478 0 0 0-2.77 6.742 8.1 8.1 0 0 0 .132 1.41 9.635 9.635 0 0 0 3.736 6.39 10.387 10.387 0 0 0 6.506 2.159c2.93 0 8.582-1.389 10.34-3.328z" class="cls-3" transform="translate(28.85 4.69)"/>
    <path id="Fill-23" d="M86.454 30.129l.116 8.558c-2.716 1.326-8.185 3.244-10.842 3.244a17.07 17.07 0 0 1-11.391-4.554 17.649 17.649 0 0 1-4.731-6.036 18.549 18.549 0 0 1-1.446-7.672 16.9 16.9 0 0 1 5.192-12.448 17.017 17.017 0 0 1 12.42-5.152 17.744 17.744 0 0 1 12.7 5.064 16.491 16.491 0 0 1 5.3 12.4v17.116h-7.71V23.315a8.988 8.988 0 0 0-3.088-6.92 10.488 10.488 0 0 0-7.294-2.809 9.676 9.676 0 0 0-7.141 2.963 9.857 9.857 0 0 0-2.935 7.208 10.5 10.5 0 0 0 2.957 7.495 9.6 9.6 0 0 0 7.25 3.117 15.016 15.016 0 0 0 4.447-.818 14.316 14.316 0 0 0 6.192-3.423" class="cls-3" transform="translate(44.236 4.69)"/>
    <path id="Fill-25" d="M65.683.506c-.436.029-.882.016-1.322.012a21.235 21.235 0 0 0-5.074.564c-3.277.78-6.07 2.314-9.115 3.474a18.361 18.361 0 0 1-8.593 1.354l-.108.056L48.185 8.4c4.035.589 8.5-.32 10.588-2.157C59.921 5.232 60.395 4 61.728 3.07a11.531 11.531 0 0 1 7.346-1.4A21.171 21.171 0 0 0 65.683.506" class="cls-4" transform="translate(31.542 .391)"/>
    <path id="Fill-27" d="M58.667 50.565a5.394 5.394 0 0 0 .533 1.915 3.927 3.927 0 0 0 .955 1.22 3.457 3.457 0 0 0 1.2.655 4.244 4.244 0 0 0 1.239.2 4.137 4.137 0 0 0 1.781-.354 3.732 3.732 0 0 0 1.239-.918 3.52 3.52 0 0 0 .71-1.259 4.568 4.568 0 0 0 .219-1.377V35.721h-2.636v1.206q-.258-.288-.49-.537a2.746 2.746 0 0 0-.516-.433 2.493 2.493 0 0 0-.633-.288 2.929 2.929 0 0 0-.839-.105 2.73 2.73 0 0 0-1.484.341 2.844 2.844 0 0 0-.865.865 2.672 2.672 0 0 0-.335 1.1 20.839 20.839 0 0 0-.078 2.13v5.062a11.8 11.8 0 0 0 .1 1.757 3.583 3.583 0 0 0 .335 1.1 2.387 2.387 0 0 0 2.3 1.259 2.743 2.743 0 0 0 1.407-.354 3.211 3.211 0 0 0 1.045-1.01h.052v2.623a1.771 1.771 0 0 1-.284 1.036 1.054 1.054 0 0 1-.929.406 1.25 1.25 0 0 1-1.02-.419 1.509 1.509 0 0 1-.374-.892zM61.3 40.048a2.461 2.461 0 0 1 .31-1.311 1.07 1.07 0 0 1 .981-.5 1.157 1.157 0 0 1 .955.459 1.876 1.876 0 0 1 .361 1.193v5.167a1.47 1.47 0 0 1-.374 1.036 1.226 1.226 0 0 1-.942.406 1.072 1.072 0 0 1-1.02-.472 2.173 2.173 0 0 1-.271-1.1zm14.765-4.327h-2.633v8.943a2.674 2.674 0 0 1-.284 1.364 1.1 1.1 0 0 1-1.033.472 1.151 1.151 0 0 1-.955-.419 1.8 1.8 0 0 1-.336-1.154v-9.2h-2.632v10.2a4.3 4.3 0 0 0 .232 1.508 2.852 2.852 0 0 0 .619 1.01 2.263 2.263 0 0 0 .878.564 2.973 2.973 0 0 0 .981.17 2.531 2.531 0 0 0 1.484-.406 3.77 3.77 0 0 0 .994-1.036h.052v1.285h2.633zm-7.176-2.072h2.323v-2.675h-2.323zm4.182 0h2.323v-2.675h-2.323zm12.675 2.072h-2.789l-1.755 8.5h-.052l-1.755-8.5h-2.788l3.407 13.3h2.323zm8 7.658v-3.671a4.811 4.811 0 0 0-.271-1.626 3.968 3.968 0 0 0-.774-1.324 3.461 3.461 0 0 0-1.239-.878 4.129 4.129 0 0 0-1.639-.315 4 4 0 0 0-2.091.525 3.558 3.558 0 0 0-1.342 1.39 3.668 3.668 0 0 0-.39 1.205 10.009 10.009 0 0 0-.1 1.495v4.38a9.994 9.994 0 0 0 .1 1.495 3.663 3.663 0 0 0 .388 1.207 3.558 3.558 0 0 0 1.342 1.39 4.4 4.4 0 0 0 3.717.21 3.7 3.7 0 0 0 1.239-.866 3.492 3.492 0 0 0 .787-1.258 4.51 4.51 0 0 0 .271-1.574h-2.63a2.43 2.43 0 0 1-.3.891 1.032 1.032 0 0 1-.994.446 1.194 1.194 0 0 1-1.291-1.311v-1.81zm-5.213-3.619a1.641 1.641 0 0 1 .348-1.141 1.358 1.358 0 0 1 1.885 0 1.641 1.641 0 0 1 .348 1.141v1.521h-2.581zm6.634 9.258H97.8v-8.943a2.673 2.673 0 0 1 .284-1.364 1.1 1.1 0 0 1 1.033-.472 1.153 1.153 0 0 1 .955.419 1.8 1.8 0 0 1 .335 1.154v9.205h2.633v-10.2a4.3 4.3 0 0 0-.232-1.508 2.847 2.847 0 0 0-.619-1.01 2.277 2.277 0 0 0-.878-.564 2.966 2.966 0 0 0-.981-.171 2.533 2.533 0 0 0-1.484.407 3.774 3.774 0 0 0-.994 1.036H97.8v-1.286h-2.633zm16.443-9.205a2.176 2.176 0 0 1 .271-1.1 1.072 1.072 0 0 1 1.02-.472 1.227 1.227 0 0 1 .942.406 1.473 1.473 0 0 1 .374 1.036v5.166a1.872 1.872 0 0 1-.361 1.193 1.156 1.156 0 0 1-.955.459 1.069 1.069 0 0 1-.981-.5 2.456 2.456 0 0 1-.31-1.311zm2.607 9.205h2.633V30.345h-2.633v6.583h-.052a3.215 3.215 0 0 0-1.045-1.009 2.692 2.692 0 0 0-1.381-.354 2.73 2.73 0 0 0-1.484.341 2.844 2.844 0 0 0-.865.865 2.672 2.672 0 0 0-.335 1.1 20.83 20.83 0 0 0-.078 2.129v5.062a11.8 11.8 0 0 0 .1 1.757 3.583 3.583 0 0 0 .335 1.1 2.387 2.387 0 0 0 2.3 1.259 3.088 3.088 0 0 0 .852-.1 2.413 2.413 0 0 0 .646-.288 2.709 2.709 0 0 0 .516-.433q.232-.25.49-.538zm4.053-4.458a10 10 0 0 0 .1 1.495 3.651 3.651 0 0 0 .387 1.207 3.558 3.558 0 0 0 1.342 1.39 4.43 4.43 0 0 0 4.181 0 3.562 3.562 0 0 0 1.342-1.39 3.664 3.664 0 0 0 .388-1.207 10.066 10.066 0 0 0 .1-1.495v-4.38a10.081 10.081 0 0 0-.1-1.495 3.669 3.669 0 0 0-.388-1.206 3.562 3.562 0 0 0-1.342-1.39 4.427 4.427 0 0 0-4.181 0 3.558 3.558 0 0 0-1.342 1.39 3.656 3.656 0 0 0-.387 1.206 10.012 10.012 0 0 0-.1 1.495zm2.633-4.8a1.639 1.639 0 0 1 .349-1.141 1.358 1.358 0 0 1 1.884 0 1.641 1.641 0 0 1 .348 1.141v5.219a1.638 1.638 0 0 1-.348 1.141 1.358 1.358 0 0 1-1.884 0 1.635 1.635 0 0 1-.349-1.141zm14.765-4.56h-2.633v.892a2.469 2.469 0 0 0-.8-.735 2.774 2.774 0 0 0-1.394-.367 2.891 2.891 0 0 0-2.349 1.023q-1.085 1.285-1.084 5.586 0 4.275 1.084 5.56a2.892 2.892 0 0 0 2.349 1.022 2.414 2.414 0 0 0 1.317-.315 2.89 2.89 0 0 0 .775-.76v2.36a2.7 2.7 0 0 1-.387 1.7 1.322 1.322 0 0 1-1.975.007 1.989 1.989 0 0 1-.374-1.317h-2.711a3.815 3.815 0 0 0 4.079 4.117 3.986 3.986 0 0 0 2.969-1.152 4.9 4.9 0 0 0 1.136-3.562zm-3.111 10.15a1.268 1.268 0 0 1-.994.419 1.225 1.225 0 0 1-1.007-.551q-.413-.551-.413-3.593t.426-3.606a1.231 1.231 0 0 1 .994-.564q1.368 0 1.368 1.678v4.983a1.8 1.8 0 0 1-.374 1.23zm9.976 3.671h2.633V39.76a5 5 0 0 0-.31-1.836 3.754 3.754 0 0 0-.839-1.311 3.411 3.411 0 0 0-1.252-.787 4.507 4.507 0 0 0-1.549-.263 4.181 4.181 0 0 0-1.626.3 3.73 3.73 0 0 0-1.239.826 4.4 4.4 0 0 0-1.188 2.885h2.556a1.626 1.626 0 0 1 .555-1 1.473 1.473 0 0 1 .942-.341 1.129 1.129 0 0 1 1.032.446 2.068 2.068 0 0 1 .284 1.128V41.2q-.413-.026-.7-.052c-.19-.017-.379-.026-.568-.026a6.37 6.37 0 0 0-2.04.275 2.842 2.842 0 0 0-1.278.839 3.158 3.158 0 0 0-.658 1.416 9.619 9.619 0 0 0-.181 1.98 5.015 5.015 0 0 0 .271 1.8 2.747 2.747 0 0 0 .7 1.075 2.372 2.372 0 0 0 .916.524 3.389 3.389 0 0 0 .955.144 2.449 2.449 0 0 0 1.484-.393 4.915 4.915 0 0 0 1.045-1.128h.052zm0-3.907a1.9 1.9 0 0 1-.374 1.258 1.29 1.29 0 0 1-1.046.446 1.194 1.194 0 0 1-1.006-.472 1.969 1.969 0 0 1-.361-1.232 1.655 1.655 0 0 1 .606-1.482 2.556 2.556 0 0 1 1.458-.407 4.26 4.26 0 0 1 .723.079zm11.306-5.665a4.155 4.155 0 0 0-.284-1.534 3.746 3.746 0 0 0-.774-1.233 3.662 3.662 0 0 0-2.659-1.115 3.883 3.883 0 0 0-2.723 1.089 3.75 3.75 0 0 0-.839 1.233 3.915 3.915 0 0 0-.31 1.56 3.628 3.628 0 0 0 .71 2.268 4.306 4.306 0 0 0 1.949 1.4l1.265.472a2.239 2.239 0 0 1 1.033.682 1.571 1.571 0 0 1 .284.944 1.312 1.312 0 0 1-.452 1.062 1.543 1.543 0 0 1-1.02.381 1.137 1.137 0 0 1-1.046-.472 2.571 2.571 0 0 1-.374-1.022h-2.478a4.517 4.517 0 0 0 .362 1.744 3.84 3.84 0 0 0 .865 1.245 3.626 3.626 0 0 0 1.226.761 4.152 4.152 0 0 0 1.471.262 3.9 3.9 0 0 0 1.575-.315 3.7 3.7 0 0 0 1.239-.866 4.155 4.155 0 0 0 .813-1.272 4.058 4.058 0 0 0 .3-1.56 4.4 4.4 0 0 0-.555-2.177 3.77 3.77 0 0 0-2.026-1.574l-1.549-.629a1.678 1.678 0 0 1-.93-.643 1.567 1.567 0 0 1-.181-.721 1.422 1.422 0 0 1 .335-.931 1.17 1.17 0 0 1 .955-.406 1.376 1.376 0 0 1 .917.341 1.343 1.343 0 0 1 .426 1.023zm1.317 9.572h2.633v-13.3h-2.633zm4.285 0h2.633v-8.946a2.673 2.673 0 0 1 .284-1.364 1.1 1.1 0 0 1 1.032-.472 1.153 1.153 0 0 1 .955.419 1.8 1.8 0 0 1 .335 1.154v9.205h2.633v-10.2a4.3 4.3 0 0 0-.232-1.508 2.842 2.842 0 0 0-.62-1.01 2.271 2.271 0 0 0-.877-.564 2.966 2.966 0 0 0-.981-.171 2.533 2.533 0 0 0-1.484.407 3.774 3.774 0 0 0-.994 1.036h-.052v-1.286h-2.633zm12.159-9.209a2.171 2.171 0 0 1 .271-1.1 1.072 1.072 0 0 1 1.019-.472 1.228 1.228 0 0 1 .942.406 1.473 1.473 0 0 1 .374 1.036v5.166a1.872 1.872 0 0 1-.361 1.193 1.157 1.157 0 0 1-.955.459 1.069 1.069 0 0 1-.981-.5 2.452 2.452 0 0 1-.31-1.311zm2.607 9.205h2.633V30.345h-2.633v6.583h-.052a3.212 3.212 0 0 0-1.046-1.009 2.689 2.689 0 0 0-1.381-.354 2.732 2.732 0 0 0-1.484.341 2.837 2.837 0 0 0-.864.865 2.672 2.672 0 0 0-.335 1.1 20.843 20.843 0 0 0-.078 2.129v5.062a11.8 11.8 0 0 0 .1 1.757 3.584 3.584 0 0 0 .335 1.1 2.387 2.387 0 0 0 2.3 1.259 3.089 3.089 0 0 0 .852-.1 2.417 2.417 0 0 0 .645-.288 2.7 2.7 0 0 0 .517-.433q.232-.25.49-.538zm9.267 0h2.633V39.76a5 5 0 0 0-.31-1.836 3.761 3.761 0 0 0-.839-1.311 3.417 3.417 0 0 0-1.252-.787 4.506 4.506 0 0 0-1.549-.263 4.181 4.181 0 0 0-1.626.3 3.73 3.73 0 0 0-1.239.826 4.4 4.4 0 0 0-1.187 2.885h2.556a1.625 1.625 0 0 1 .555-1 1.474 1.474 0 0 1 .942-.341 1.129 1.129 0 0 1 1.032.446 2.064 2.064 0 0 1 .284 1.128V41.2q-.414-.026-.7-.052c-.19-.017-.379-.026-.568-.026a6.37 6.37 0 0 0-2.04.275 2.838 2.838 0 0 0-1.277.839 3.159 3.159 0 0 0-.659 1.416 9.618 9.618 0 0 0-.181 1.98 5.014 5.014 0 0 0 .271 1.8 2.752 2.752 0 0 0 .7 1.075 2.372 2.372 0 0 0 .916.524 3.392 3.392 0 0 0 .955.144 2.449 2.449 0 0 0 1.484-.393 4.927 4.927 0 0 0 1.046-1.128h.052zm0-3.907a1.9 1.9 0 0 1-.375 1.258 1.29 1.29 0 0 1-1.045.446 1.2 1.2 0 0 1-1.007-.472 1.969 1.969 0 0 1-.361-1.232 1.655 1.655 0 0 1 .606-1.482 2.558 2.558 0 0 1 1.459-.407 4.264 4.264 0 0 1 .723.079zm16.365-9.389h-2.788l-1.755 8.5h-.052l-1.755-8.5H190.7l3.408 13.3h2.323zm5.369 13.3h2.633V39.76a5 5 0 0 0-.31-1.836 3.755 3.755 0 0 0-.839-1.311 3.411 3.411 0 0 0-1.252-.787 4.507 4.507 0 0 0-1.549-.263 4.181 4.181 0 0 0-1.626.3 3.73 3.73 0 0 0-1.239.826 4.4 4.4 0 0 0-1.188 2.885h2.556a1.625 1.625 0 0 1 .555-1 1.474 1.474 0 0 1 .942-.341 1.129 1.129 0 0 1 1.032.446 2.068 2.068 0 0 1 .284 1.128V41.2q-.413-.026-.7-.052c-.19-.017-.379-.026-.568-.026a6.37 6.37 0 0 0-2.04.275 2.842 2.842 0 0 0-1.278.839 3.158 3.158 0 0 0-.658 1.416 9.618 9.618 0 0 0-.181 1.98 5.014 5.014 0 0 0 .271 1.8 2.747 2.747 0 0 0 .7 1.075 2.373 2.373 0 0 0 .916.524 3.389 3.389 0 0 0 .955.144 2.449 2.449 0 0 0 1.484-.393 4.914 4.914 0 0 0 1.045-1.128h.052zm0-3.907a1.9 1.9 0 0 1-.374 1.258 1.29 1.29 0 0 1-1.045.446 1.2 1.2 0 0 1-1.007-.472 1.969 1.969 0 0 1-.361-1.232 1.655 1.655 0 0 1 .606-1.482 2.556 2.556 0 0 1 1.459-.407 4.26 4.26 0 0 1 .723.079zm4.053 3.907h2.633v-7.897a3.2 3.2 0 0 1 .259-1.364 2.589 2.589 0 0 1 .658-.891 2.423 2.423 0 0 1 .878-.486 3.1 3.1 0 0 1 .89-.144 2.109 2.109 0 0 1 .8.157v-2.832a3.967 3.967 0 0 0-1.911.42 8.019 8.019 0 0 0-1.575 1.154v-1.417h-2.633z" class="cls-4" transform="translate(44.621 23.448)"/>
    <path id="Fill-29" d="M98.115 32.118a5.294 5.294 0 0 0 .735-.381 8.181 8.181 0 0 1 4.02-.884 7.976 7.976 0 0 1 2.368.4 3.686 3.686 0 0 0-1.9.282c-.345.188-.467.436-.763.639a4.6 4.6 0 0 1-2.732.435" class="cls-1" transform="translate(74.625 23.839)"/>
    <path id="Fill-31" d="M104.363 31.356c-.112.007-.227 0-.341 0a6.318 6.318 0 0 0-1.309.125 20.691 20.691 0 0 0-2.353.772 5.437 5.437 0 0 1-2.218.3l-.027.013 1.733.54a4.225 4.225 0 0 0 2.732-.479c.3-.224.418-.5.762-.7a3.383 3.383 0 0 1 1.9-.311 6.073 6.073 0 0 0-.875-.259" class="cls-4" transform="translate(74.625 24.23)"/>
</svg>
