<svg xmlns="http://www.w3.org/2000/svg" id="Logo_-_2" width="160" height="48" viewBox="0 0 160 48">
    <defs>
        <style>
            .cls-1{fill:#fff;fill-rule:evenodd}
        </style>
    </defs>
    <path id="Fill-1" d="M41.471 3.9a11.829 11.829 0 0 0 1.753-1.171A16.016 16.016 0 0 1 52.812.008a15.231 15.231 0 0 1 5.646 1.229 7.052 7.052 0 0 0-4.52.867c-.821.579-1.113 1.341-1.818 1.965-1.288 1.139-4.033 1.7-6.516 1.338" class="cls-1" transform="translate(3.46)"/>
    <path id="Fill-3" d="M81.425 25.885v-2.928a3.167 3.167 0 0 0 1.053-.379 3.683 3.683 0 0 0 .857-.749 2.8 2.8 0 0 0 .719-1.808l.082-1.792a12.225 12.225 0 0 1 .245-1.683 5.2 5.2 0 0 1 .669-1.5 5.614 5.614 0 0 1 1.714-1.783 4.311 4.311 0 0 1 2.334-.623v2.995a2.909 2.909 0 0 0-1.714 1.111 2.229 2.229 0 0 0-.457.926 6.065 6.065 0 0 0-.1 1.194v.656a10.019 10.019 0 0 1-.229 2.423 5.152 5.152 0 0 1-.979 1.834 5.6 5.6 0 0 1-1.844 1.607 5.141 5.141 0 0 1-2.35.5" class="cls-1" transform="translate(6.794 1.149)"/>
    <path id="Fill-5" d="M91.725 13a1.571 1.571 0 0 1-1.252-.518 1.8 1.8 0 0 1-.45-1.219 1.673 1.673 0 0 1 .442-1.169 1.621 1.621 0 0 1 1.26-.484 1.476 1.476 0 0 1 1.185.534 1.873 1.873 0 0 1-.025 2.347 1.431 1.431 0 0 1-1.16.509zm-1.452 13.161h2.837V13.818h-2.837z" class="cls-1" transform="translate(7.511 .874)"/>
    <path id="Fill-7" d="M103.913 25.126a6.14 6.14 0 0 1-2.7.584 7.092 7.092 0 0 1-4.294-1.4 5.23 5.23 0 0 1-2.264-3.671 10.859 10.859 0 0 1-.083-1.235 6.676 6.676 0 0 1 1.881-4.956 6.291 6.291 0 0 1 4.628-1.8 6.8 6.8 0 0 1 4.669 1.753 5.588 5.588 0 0 1 1.973 4.355v6.525a4.456 4.456 0 0 1-1.841 3.638 6.547 6.547 0 0 1-4.179 1.385h-.249a11.168 11.168 0 0 1-1.26-.058 5.808 5.808 0 0 1-1.145-.276v-2.791a6.933 6.933 0 0 0 1.107.267 8.686 8.686 0 0 0 1.173.067 6.1 6.1 0 0 0 1.265-.142 4.36 4.36 0 0 0 .932-.275 3.455 3.455 0 0 0 .932-.617 1.7 1.7 0 0 0 .433-1.2v-6.344a3.045 3.045 0 0 0-1.215-2.478 4.384 4.384 0 0 0-2.83-.976 3.314 3.314 0 0 0-2.481 1.1 3.59 3.59 0 0 0-1.049 2.553 3.1 3.1 0 0 0 .05.534 3.649 3.649 0 0 0 1.415 2.42 3.935 3.935 0 0 0 2.464.818 3.42 3.42 0 0 0 2.663-1.1z" class="cls-1" transform="translate(7.891 1.149)"/>
    <path id="Fill-9" d="M114.224 25.885a6.191 6.191 0 0 1-4.879-2.036 6.566 6.566 0 0 1-1.621-4.51 6.718 6.718 0 0 1 1.654-4.593 6.328 6.328 0 0 1 5-2.1 6.19 6.19 0 0 1 4.879 2.036 6.564 6.564 0 0 1 1.621 4.509 6.718 6.718 0 0 1-1.655 4.593 6.326 6.326 0 0 1-5 2.1m.284-10.5a3.658 3.658 0 0 0-2.891 1.213 3.9 3.9 0 0 0-.969 2.678 3.758 3.758 0 0 0 .919 2.576 3.571 3.571 0 0 0 2.808 1.162 3.659 3.659 0 0 0 2.89-1.213 3.894 3.894 0 0 0 .969-2.678 3.765 3.765 0 0 0-.919-2.576 3.573 3.573 0 0 0-2.807-1.162" class="cls-1" transform="translate(8.988 1.149)"/>
    <path id="Fill-11" d="M123.865 25.885l-2.992-.017v-7.225a6.532 6.532 0 0 1 .584-2.867 5.5 5.5 0 0 1 1.864-2.1 6.2 6.2 0 0 1 1.472-.787 4.536 4.536 0 0 1 1.5-.24c.139 0 .3.008.5.025s.411.047.656.091v2.933a2.988 2.988 0 0 0-.832-.116 2.622 2.622 0 0 0-1.6.58 3 3 0 0 0-.856.945 2.469 2.469 0 0 0-.3 1.226z" class="cls-1" transform="translate(10.085 1.149)"/>
    <path id="Fill-13" d="M128.46 9.609h2.789v3.323h1.926v2.91h-1.926v5.5a1.788 1.788 0 0 0 .158.779 2.493 2.493 0 0 0 .507.68 2.139 2.139 0 0 0 1.561.663h.465v2.695h-.448a4.7 4.7 0 0 1-1.461-.232 7.635 7.635 0 0 1-1.943-1.011 3.539 3.539 0 0 1-1.113-1.392 4.747 4.747 0 0 1-.515-2.121z" class="cls-1" transform="translate(10.718 .874)"/>
    <path id="Fill-15" d="M144.5 21.787v3.363a6.739 6.739 0 0 1-2.976.735 6.3 6.3 0 0 1-4.206-1.682 6.52 6.52 0 0 1-1.747-2.229 6.859 6.859 0 0 1-.534-2.833 6.519 6.519 0 0 1 6.5-6.5 6.555 6.555 0 0 1 4.691 1.869 6.092 6.092 0 0 1 1.957 4.58v6.318h-2.847v-6.4a3.317 3.317 0 0 0-1.14-2.555 3.873 3.873 0 0 0-2.693-1.037 3.57 3.57 0 0 0-2.637 1.094 3.638 3.638 0 0 0-1.084 2.661 3.877 3.877 0 0 0 1.091 2.767 3.547 3.547 0 0 0 2.677 1.151 4.065 4.065 0 0 0 1.642-.3 3.78 3.78 0 0 0 1.3-1" class="cls-1" transform="translate(11.267 1.149)"/>
    <path id="Fill-17" d="M0 5.057h4.985A16.1 16.1 0 0 1 15 8.226a9.473 9.473 0 0 1 4.181 7.789 10.031 10.031 0 0 1-3.8 7.822A13.681 13.681 0 0 1 6.1 27.126H0zm4.985 17.867q0 .11.545.11a10.209 10.209 0 0 0 3.078-.55 9 9 0 0 0 3.678-2.112 6 6 0 0 0 1.771-4.4 5.535 5.535 0 0 0-2.534-4.708A10.869 10.869 0 0 0 5.094 9.15l-.109.044z" class="cls-1" transform="translate(0 .46)"/>
    <path id="Fill-19" d="M28.264 27.586a10.06 10.06 0 0 1-7.929-3.308A10.669 10.669 0 0 1 17.7 16.95a10.917 10.917 0 0 1 2.688-7.464 10.279 10.279 0 0 1 8.119-3.418 10.061 10.061 0 0 1 7.929 3.308 10.672 10.672 0 0 1 2.635 7.324 10.916 10.916 0 0 1-2.689 7.464 10.279 10.279 0 0 1-8.119 3.418m.462-17.066a5.947 5.947 0 0 0-4.7 1.97 6.331 6.331 0 0 0-1.575 4.351 6.108 6.108 0 0 0 1.493 4.187 5.8 5.8 0 0 0 4.562 1.888 5.948 5.948 0 0 0 4.7-1.97 6.332 6.332 0 0 0 1.575-4.352 6.112 6.112 0 0 0-1.493-4.187 5.806 5.806 0 0 0-4.562-1.888" class="cls-1" transform="translate(1.477 .552)"/>
    <path id="Fill-21" d="M55.428 25.627a15.08 15.08 0 0 1-6.7 1.675 10.584 10.584 0 0 1-6.979-2.278 8.5 8.5 0 0 1-3.679-5.966 17.713 17.713 0 0 1-.135-2.007A10.847 10.847 0 0 1 40.988 9a10.221 10.221 0 0 1 7.52-2.929A11.048 11.048 0 0 1 56.1 8.917a9.083 9.083 0 0 1 3.2 7.077V26.6a7.24 7.24 0 0 1-2.991 5.911 10.642 10.642 0 0 1-6.791 2.251h-.4a18.143 18.143 0 0 1-2.048-.095 9.49 9.49 0 0 1-1.86-.447v-4.532a11.307 11.307 0 0 0 1.8.434 14.1 14.1 0 0 0 1.907.108A9.87 9.87 0 0 0 50.97 30a7.06 7.06 0 0 0 1.515-.447 5.573 5.573 0 0 0 1.515-1 2.759 2.759 0 0 0 .7-1.952v-10.3a4.948 4.948 0 0 0-1.975-4.027 7.127 7.127 0 0 0-4.6-1.586 5.383 5.383 0 0 0-4.03 1.79 5.833 5.833 0 0 0-1.7 4.149 4.982 4.982 0 0 0 .081.868 5.929 5.929 0 0 0 2.3 3.932 6.392 6.392 0 0 0 4 1.328c1.8 0 5.281-.855 6.363-2.048z" class="cls-1" transform="translate(3.165 .552)"/>
    <path id="Fill-23" d="M75.572 20.875l.071 5.266a21.081 21.081 0 0 1-6.672 2 10.5 10.5 0 0 1-7.01-2.8 10.861 10.861 0 0 1-2.911-3.715 11.415 11.415 0 0 1-.89-4.721 10.4 10.4 0 0 1 3.195-7.66A10.472 10.472 0 0 1 69 6.069a10.919 10.919 0 0 1 7.818 3.116 10.149 10.149 0 0 1 3.263 7.633v10.531h-4.747V16.682a5.531 5.531 0 0 0-1.9-4.259 6.454 6.454 0 0 0-4.489-1.723 5.955 5.955 0 0 0-4.395 1.823 6.066 6.066 0 0 0-1.806 4.436 6.463 6.463 0 0 0 1.82 4.612 5.91 5.91 0 0 0 4.461 1.918 9.241 9.241 0 0 0 2.737-.5 8.81 8.81 0 0 0 3.81-2.106" class="cls-1" transform="translate(4.853 .552)"/>
    <path id="Fill-25" d="M56.371.506c-.269.018-.543.01-.814.007a13.068 13.068 0 0 0-3.122.347A44.775 44.775 0 0 0 46.825 3a11.3 11.3 0 0 1-5.288.833l-.066.035 4.132 1.5c2.483.362 5.228-.2 6.515-1.328.706-.62 1-1.375 1.818-1.95a7.1 7.1 0 0 1 4.521-.861 13.028 13.028 0 0 0-2.086-.723" class="cls-1" transform="translate(3.46 .046)"/>
    <path id="Fill-27" d="M58.667 42.788a3.32 3.32 0 0 0 .326 1.178 2.417 2.417 0 0 0 .588.751 2.127 2.127 0 0 0 .739.4 2.611 2.611 0 0 0 .763.121 2.546 2.546 0 0 0 1.1-.218 2.3 2.3 0 0 0 .762-.565 2.166 2.166 0 0 0 .437-.775 2.811 2.811 0 0 0 .135-.847v-9.179h-1.62v.746q-.159-.177-.3-.331a1.691 1.691 0 0 0-.318-.266 1.534 1.534 0 0 0-.389-.177 1.8 1.8 0 0 0-.516-.065 1.68 1.68 0 0 0-.913.21 1.75 1.75 0 0 0-.532.532 1.644 1.644 0 0 0-.206.678 12.823 12.823 0 0 0-.048 1.307V39.4a7.261 7.261 0 0 0 .064 1.081 2.2 2.2 0 0 0 .206.678 1.469 1.469 0 0 0 1.414.775 1.688 1.688 0 0 0 .866-.218 1.976 1.976 0 0 0 .643-.621h.032v1.614a1.09 1.09 0 0 1-.175.638.649.649 0 0 1-.572.25.769.769 0 0 1-.628-.258.929.929 0 0 1-.23-.549zm1.62-6.472a1.514 1.514 0 0 1 .191-.807.659.659 0 0 1 .6-.307.712.712 0 0 1 .588.282 1.154 1.154 0 0 1 .222.734V39.4a.9.9 0 0 1-.23.637.754.754 0 0 1-.58.25.66.66 0 0 1-.628-.29 1.337 1.337 0 0 1-.167-.678zm9.086-2.663h-1.62v5.5a1.646 1.646 0 0 1-.175.839.68.68 0 0 1-.636.29.708.708 0 0 1-.588-.258 1.106 1.106 0 0 1-.207-.71v-5.66h-1.62v6.278a2.643 2.643 0 0 0 .143.928 1.755 1.755 0 0 0 .381.621 1.393 1.393 0 0 0 .54.347 1.83 1.83 0 0 0 .6.1 1.558 1.558 0 0 0 .913-.25 2.32 2.32 0 0 0 .612-.638h.032v.791h1.62zm-4.416-1.275h1.43v-1.646h-1.43zm2.574 0h1.43v-1.646h-1.43zm7.8 1.275h-1.716l-1.08 5.229H72.5l-1.08-5.229h-1.713l2.1 8.182h1.43zm4.924 4.712v-2.259a2.961 2.961 0 0 0-.167-1 2.442 2.442 0 0 0-.476-.815 2.13 2.13 0 0 0-.763-.54 2.541 2.541 0 0 0-1.009-.194 2.463 2.463 0 0 0-1.287.323 2.19 2.19 0 0 0-.826.855 2.257 2.257 0 0 0-.238.742 6.159 6.159 0 0 0-.064.92v2.7a6.15 6.15 0 0 0 .064.92 2.254 2.254 0 0 0 .238.742 2.19 2.19 0 0 0 .826.855 2.708 2.708 0 0 0 2.287.129 2.279 2.279 0 0 0 .763-.533 2.148 2.148 0 0 0 .484-.774 2.775 2.775 0 0 0 .167-.968h-1.62a1.5 1.5 0 0 1-.183.549.635.635 0 0 1-.612.274.735.735 0 0 1-.794-.807v-1.118zm-3.209-2.227a1.01 1.01 0 0 1 .214-.7.836.836 0 0 1 1.16 0 1.01 1.01 0 0 1 .214.7v.936h-1.588zm4.082 5.7h1.62v-5.5a1.645 1.645 0 0 1 .175-.839.679.679 0 0 1 .636-.29.71.71 0 0 1 .588.258 1.108 1.108 0 0 1 .206.71v5.665h1.62v-6.284a2.644 2.644 0 0 0-.143-.928 1.752 1.752 0 0 0-.381-.621 1.4 1.4 0 0 0-.54-.347 1.825 1.825 0 0 0-.6-.105 1.559 1.559 0 0 0-.913.25 2.322 2.322 0 0 0-.611.637h-.032v-.791h-1.62zm10.119-5.665a1.339 1.339 0 0 1 .167-.678.66.66 0 0 1 .628-.29.755.755 0 0 1 .58.25.906.906 0 0 1 .23.638v3.177a1.152 1.152 0 0 1-.222.734.711.711 0 0 1-.588.282.658.658 0 0 1-.6-.307 1.511 1.511 0 0 1-.191-.807zm1.6 5.665h1.62V30.345h-1.62V34.4h-.027a1.978 1.978 0 0 0-.643-.621 1.656 1.656 0 0 0-.85-.218 1.68 1.68 0 0 0-.913.21 1.75 1.75 0 0 0-.532.532 1.644 1.644 0 0 0-.206.678 12.819 12.819 0 0 0-.048 1.307V39.4a7.259 7.259 0 0 0 .064 1.081 2.2 2.2 0 0 0 .206.678 1.469 1.469 0 0 0 1.414.775 1.9 1.9 0 0 0 .524-.065 1.485 1.485 0 0 0 .4-.177 1.667 1.667 0 0 0 .318-.266q.143-.154.3-.331zm2.494-2.744a6.152 6.152 0 0 0 .064.92 2.247 2.247 0 0 0 .238.742 2.19 2.19 0 0 0 .826.855 2.726 2.726 0 0 0 2.573 0 2.192 2.192 0 0 0 .826-.855 2.255 2.255 0 0 0 .239-.742 6.194 6.194 0 0 0 .064-.92V36.4a6.2 6.2 0 0 0-.064-.92 2.258 2.258 0 0 0-.239-.742 2.192 2.192 0 0 0-.826-.855 2.724 2.724 0 0 0-2.573 0 2.19 2.19 0 0 0-.826.855 2.25 2.25 0 0 0-.238.742 6.161 6.161 0 0 0-.064.92zm1.62-2.953a1.008 1.008 0 0 1 .215-.7.835.835 0 0 1 1.16 0 1.01 1.01 0 0 1 .214.7v3.209a1.008 1.008 0 0 1-.214.7.835.835 0 0 1-1.16 0 1.006 1.006 0 0 1-.215-.7zm9.087-2.808h-1.62v.549a1.519 1.519 0 0 0-.493-.452 1.707 1.707 0 0 0-.858-.226 1.779 1.779 0 0 0-1.445.63q-.667.791-.667 3.437 0 2.631.667 3.422a1.78 1.78 0 0 0 1.445.629 1.485 1.485 0 0 0 .81-.194 1.779 1.779 0 0 0 .477-.468v1.45a1.664 1.664 0 0 1-.238 1.049.814.814 0 0 1-1.215 0 1.224 1.224 0 0 1-.23-.811h-1.668a2.348 2.348 0 0 0 2.51 2.534 2.453 2.453 0 0 0 1.827-.709 3.016 3.016 0 0 0 .7-2.192zm-1.914 6.246a.78.78 0 0 1-.612.258.754.754 0 0 1-.62-.339 5.207 5.207 0 0 1-.254-2.211 5.128 5.128 0 0 1 .262-2.219.757.757 0 0 1 .612-.347q.842 0 .842 1.033v3.066a1.108 1.108 0 0 1-.226.757zm6.139 2.259h1.62v-5.7a3.074 3.074 0 0 0-.191-1.13 2.31 2.31 0 0 0-.516-.807 2.1 2.1 0 0 0-.77-.484 2.774 2.774 0 0 0-.953-.162 2.573 2.573 0 0 0-1 .186 2.3 2.3 0 0 0-.763.508 2.709 2.709 0 0 0-.731 1.775h1.573a1 1 0 0 1 .341-.613.907.907 0 0 1 .58-.21.7.7 0 0 1 .635.274 1.273 1.273 0 0 1 .175.694v.855q-.254-.016-.429-.032c-.117-.011-.233-.016-.349-.016a3.92 3.92 0 0 0-1.255.169 1.749 1.749 0 0 0-.786.517 1.944 1.944 0 0 0-.4.872 5.919 5.919 0 0 0-.111 1.218 3.086 3.086 0 0 0 .167 1.105 1.691 1.691 0 0 0 .429.662 1.46 1.46 0 0 0 .564.323 2.086 2.086 0 0 0 .588.089 1.507 1.507 0 0 0 .913-.242 3.024 3.024 0 0 0 .643-.694h.032zm0-2.4a1.172 1.172 0 0 1-.23.774.794.794 0 0 1-.643.275.735.735 0 0 1-.619-.291 1.212 1.212 0 0 1-.222-.758 1.018 1.018 0 0 1 .373-.912 1.573 1.573 0 0 1 .9-.25 2.621 2.621 0 0 1 .445.048zm6.958-3.486a2.557 2.557 0 0 0-.171-.952 2.305 2.305 0 0 0-.476-.759 2.254 2.254 0 0 0-1.636-.686 2.39 2.39 0 0 0-1.676.67 2.307 2.307 0 0 0-.516.759 2.409 2.409 0 0 0-.191.96 2.233 2.233 0 0 0 .437 1.4 2.65 2.65 0 0 0 1.2.863l.778.291a1.378 1.378 0 0 1 .636.419.967.967 0 0 1 .175.581.808.808 0 0 1-.278.653.949.949 0 0 1-.628.234.7.7 0 0 1-.643-.291 1.582 1.582 0 0 1-.23-.629h-1.525a2.779 2.779 0 0 0 .223 1.073 2.363 2.363 0 0 0 .532.766 2.231 2.231 0 0 0 .755.468 2.555 2.555 0 0 0 .905.161 2.4 2.4 0 0 0 .969-.194 2.279 2.279 0 0 0 .763-.533 2.556 2.556 0 0 0 .5-.782 2.5 2.5 0 0 0 .183-.96 2.71 2.71 0 0 0-.342-1.34 2.32 2.32 0 0 0-1.247-.968l-.953-.387a1.033 1.033 0 0 1-.572-.4.964.964 0 0 1-.111-.444.875.875 0 0 1 .206-.573.72.72 0 0 1 .588-.25.847.847 0 0 1 .564.21.826.826 0 0 1 .262.63zm.81 5.891h1.62v-8.189h-1.62zm2.637 0h1.62v-5.5a1.645 1.645 0 0 1 .175-.839.679.679 0 0 1 .635-.29.71.71 0 0 1 .588.258 1.11 1.11 0 0 1 .206.71v5.665h1.62v-6.289a2.645 2.645 0 0 0-.143-.928 1.749 1.749 0 0 0-.381-.621 1.4 1.4 0 0 0-.54-.347 1.825 1.825 0 0 0-.6-.105 1.559 1.559 0 0 0-.913.25 2.322 2.322 0 0 0-.611.637h-.034v-.791h-1.62zm7.482-5.665a1.336 1.336 0 0 1 .167-.678.66.66 0 0 1 .627-.29.755.755 0 0 1 .58.25.906.906 0 0 1 .23.638v3.172a1.152 1.152 0 0 1-.222.734.712.712 0 0 1-.588.282.658.658 0 0 1-.6-.307 1.509 1.509 0 0 1-.191-.807zm1.6 5.665h1.62V30.345h-1.62V34.4h-.032a1.976 1.976 0 0 0-.643-.621 1.655 1.655 0 0 0-.85-.218 1.682 1.682 0 0 0-.913.21 1.746 1.746 0 0 0-.532.532 1.644 1.644 0 0 0-.206.678 12.823 12.823 0 0 0-.048 1.307V39.4a7.261 7.261 0 0 0 .064 1.081 2.205 2.205 0 0 0 .206.678 1.469 1.469 0 0 0 1.414.775 1.9 1.9 0 0 0 .524-.065 1.487 1.487 0 0 0 .4-.177 1.66 1.66 0 0 0 .318-.266q.143-.154.3-.331zm5.7 0h1.62v-5.7a3.075 3.075 0 0 0-.191-1.13 2.314 2.314 0 0 0-.516-.807 2.1 2.1 0 0 0-.771-.484 2.773 2.773 0 0 0-.953-.162 2.573 2.573 0 0 0-1 .186 2.3 2.3 0 0 0-.763.508 2.71 2.71 0 0 0-.731 1.775h1.573a1 1 0 0 1 .341-.613.907.907 0 0 1 .58-.21.7.7 0 0 1 .635.274 1.27 1.27 0 0 1 .175.694v.855q-.255-.016-.429-.032c-.117-.011-.233-.016-.349-.016a3.92 3.92 0 0 0-1.255.169 1.746 1.746 0 0 0-.786.517 1.944 1.944 0 0 0-.405.872 5.919 5.919 0 0 0-.111 1.218 3.086 3.086 0 0 0 .167 1.105 1.694 1.694 0 0 0 .429.662 1.46 1.46 0 0 0 .564.323 2.088 2.088 0 0 0 .588.089 1.507 1.507 0 0 0 .913-.242 3.032 3.032 0 0 0 .643-.694h.032zm0-2.4a1.17 1.17 0 0 1-.231.774.794.794 0 0 1-.643.275.735.735 0 0 1-.62-.291 1.212 1.212 0 0 1-.222-.758 1.018 1.018 0 0 1 .373-.912 1.574 1.574 0 0 1 .9-.25 2.624 2.624 0 0 1 .445.048zm10.071-5.778h-1.716l-1.08 5.229h-.032l-1.08-5.229h-1.716l2.1 8.182h1.43zm3.3 8.182h1.62v-5.7a3.075 3.075 0 0 0-.191-1.13 2.31 2.31 0 0 0-.516-.807 2.1 2.1 0 0 0-.77-.484 2.774 2.774 0 0 0-.953-.162 2.573 2.573 0 0 0-1 .186 2.3 2.3 0 0 0-.763.508 2.709 2.709 0 0 0-.731 1.775h1.573a1 1 0 0 1 .341-.613.907.907 0 0 1 .58-.21.7.7 0 0 1 .635.274 1.273 1.273 0 0 1 .175.694v.855q-.254-.016-.429-.032c-.117-.011-.233-.016-.349-.016a3.92 3.92 0 0 0-1.255.169 1.749 1.749 0 0 0-.786.517 1.943 1.943 0 0 0-.4.872 5.919 5.919 0 0 0-.111 1.218 3.085 3.085 0 0 0 .167 1.105 1.691 1.691 0 0 0 .429.662 1.46 1.46 0 0 0 .564.323 2.086 2.086 0 0 0 .588.089 1.507 1.507 0 0 0 .913-.242 3.024 3.024 0 0 0 .643-.694h.032zm0-2.4a1.172 1.172 0 0 1-.23.774.794.794 0 0 1-.643.275.735.735 0 0 1-.62-.291 1.212 1.212 0 0 1-.222-.758 1.018 1.018 0 0 1 .373-.912 1.573 1.573 0 0 1 .9-.25 2.621 2.621 0 0 1 .445.048zm2.494 2.4h1.62v-4.869a1.972 1.972 0 0 1 .159-.839 1.594 1.594 0 0 1 .4-.549 1.491 1.491 0 0 1 .54-.3 1.907 1.907 0 0 1 .548-.089 1.3 1.3 0 0 1 .493.1v-1.745a2.441 2.441 0 0 0-1.176.258 4.935 4.935 0 0 0-.969.71v-.871h-1.62z" class="cls-1" transform="translate(4.895 2.759)"/>
    <path id="Fill-29" d="M98.115 31.63a3.258 3.258 0 0 0 .452-.234 5.034 5.034 0 0 1 2.474-.544 4.908 4.908 0 0 1 1.457.246 2.268 2.268 0 0 0-1.166.173c-.212.116-.287.268-.469.393a2.828 2.828 0 0 1-1.681.268" class="cls-1" transform="translate(8.186 2.805)"/>
    <path id="Fill-31" d="M101.96 31.356h-.21a3.888 3.888 0 0 0-.806.077 12.732 12.732 0 0 0-1.448.475 3.346 3.346 0 0 1-1.365.185l-.017.008 1.066.332a2.6 2.6 0 0 0 1.681-.295c.182-.138.257-.306.469-.433a2.082 2.082 0 0 1 1.167-.191 3.737 3.737 0 0 0-.539-.159" class="cls-1" transform="translate(8.186 2.851)"/>
</svg>
