<svg xmlns="http://www.w3.org/2000/svg" width="38.75" height="38.75" viewBox="0 0 38.75 38.75">
    <path fill="#fff" d="M20-34.375A19.375 19.375 0 0 0 .625-15 19.375 19.375 0 0 0 20 4.375 19.375 19.375 0 0 0 39.375-15 19.375 19.375 0 0 0 20-34.375zm0 36.25A16.874 16.874 0 0 1 3.125-15 16.874 16.874 0 0 1 20-31.875 16.874 16.874 0 0 1 36.875-15 16.874 16.874 0 0 1 20 1.875zm11.065-21.481a.937.937 0 0 0 .005-1.326l-.66-.666a.937.937 0 0 0-1.326-.005L16.315-8.937l-5.389-5.432a.938.938 0 0 0-1.326-.005l-.666.66a.937.937 0 0 0-.005 1.326l6.709 6.763a.938.938 0 0 0 1.326.005z" transform="translate(-.625 34.375)"/>
</svg>
