<svg xmlns="http://www.w3.org/2000/svg" width="24" height="24" viewBox="0 0 24 24">
    <path fill="#fff" d="M22.866-19.87l-4.725-1.092a1.469 1.469 0 0 0-1.678.848l-2.18 5.086a1.47 1.47 0 0 0 .417 1.711l2.527 2.067a16.406 16.406 0 0 1-7.482 7.481L7.678-6.3a1.47 1.47 0 0 0-1.711-.417L.886-4.533a1.463 1.463 0 0 0-.849 1.674l1.088 4.72A1.464 1.464 0 0 0 2.555 3 21.44 21.44 0 0 0 24-18.445a1.456 1.456 0 0 0-1.134-1.425zM2.583 1.5L1.5-3.169l5.039-2.156 2.789 3.413a18.113 18.113 0 0 0 9.755-9.755l-3.413-2.789 2.156-5.034 4.674 1.078A19.934 19.934 0 0 1 2.583 1.5z" transform="translate(0 21)"/>
</svg>
