<svg xmlns="http://www.w3.org/2000/svg" width="220" height="56" viewBox="0 0 220 56">
    <g transform="translate(-542 -293)">
        <rect width="220" height="56" fill="#51ccff" rx="10" transform="translate(542 293)"/>
        <text fill="#fff" font-family="Gilroy-Medium" font-size="20px" font-weight="500" letter-spacing="-0.03em" transform="translate(562 328)">
            <tspan x="0" y="0">Twitter</tspan>
        </text>
        <path fill="#fff" d="M11.415 24.768c-5.007 0-8.964-.875-10.858-2.4l-.037-.03-.033-.038a1.54 1.54 0 0 1-.4-1.619l.013-.044a1.568 1.568 0 0 1 1.431-.984 12.928 12.928 0 0 0 3.418-.471 6.488 6.488 0 0 1-3.419-3.951 1.4 1.4 0 0 1 .49-1.631 1.429 1.429 0 0 1 .426-.218A9.461 9.461 0 0 1 .506 9.9l-.012-.036-.008-.04a1.458 1.458 0 0 1 .675-1.565 1.452 1.452 0 0 1 .691-.2A7.315 7.315 0 0 1 1.3 6.378a7.054 7.054 0 0 1 .751-4.7l.186-.372a1.038 1.038 0 0 1 1.663-.27l.339.339a16 16 0 0 0 9.224 5.051 7.348 7.348 0 0 1 1.983-4.236A6.96 6.96 0 0 1 20.414 0h.012a9.954 9.954 0 0 1 4.108 1.337c.884-.289 1.949-.737 3.054-1.21A1.4 1.4 0 0 1 29.149.4a1.371 1.371 0 0 1 .3 1.506q-.121.335-.273.658a1.4 1.4 0 0 1 .407.28 1.509 1.509 0 0 1 .375 1.41l-.014.048a5.755 5.755 0 0 1-2.314 3.176c-.18 9.567-7.385 17.29-16.215 17.29zm-9.17-3.38c1.784 1.009 5.184 1.62 9.171 1.62A13.737 13.737 0 0 0 21.6 18.375a16.6 16.6 0 0 0 4.274-11.264v-.048a1.036 1.036 0 0 1 .553-.917 3.736 3.736 0 0 0 1.617-1.789 1.037 1.037 0 0 1-1-1.634 5.71 5.71 0 0 0 .392-.62c-.954.4-1.86.76-2.647 1a1.125 1.125 0 0 1-.866-.093 8.571 8.571 0 0 0-3.491-1.25 5.47 5.47 0 0 0-5.261 5.54 1.038 1.038 0 0 1-1.238 1.018C9.15 7.379 6.317 5.966 3.37 3.005a5.194 5.194 0 0 0-.342 3.037A6.419 6.419 0 0 0 4.551 9 1.037 1.037 0 0 1 3.5 10.683a4.752 4.752 0 0 1-.967-.372 8.765 8.765 0 0 0 3 3.485 1.038 1.038 0 0 1-.664 1.89 4.664 4.664 0 0 1-1.377-.3 4.731 4.731 0 0 0 3.775 2.675A1.038 1.038 0 0 1 7.585 20a12.466 12.466 0 0 1-5.34 1.388zm0 0" transform="translate(712 309.001)"/>
    </g>
</svg>
