<svg xmlns="http://www.w3.org/2000/svg" width="59.994" height="60.009" viewBox="0 0 59.994 60.009">
    <path fill="#bee5d3" d="M42.691-21.223L30.4-23.016l-5.5-11.168a2.665 2.665 0 0 0-2.414-1.5 2.628 2.628 0 0 0-2.4 1.5l-5.5 11.168-12.277 1.793A2.7 2.7 0 0 0 .82-16.617l8.895 8.683-2.11 12.27A2.7 2.7 0 0 0 10.254 7.5a2.62 2.62 0 0 0 1.254-.316L22.5 1.395l10.992 5.789a2.681 2.681 0 0 0 3.9-2.836L35.3-7.922l8.894-8.684a2.716 2.716 0 0 0-1.503-4.617zM32.672-10.617l-1.406 1.383.328 1.945 1.734 10.148-9.094-4.793-1.746-.926-1.746.926-9.094 4.793 1.735-10.148.328-1.945-1.411-1.383-7.348-7.2L15.129-19.3l1.945-.281.867-1.77 4.559-9.235 4.547 9.234.867 1.77 1.945.281 10.172 1.488zm-3.516-29.016l5.7 2.848 2.848 5.7a1.877 1.877 0 0 0 1.676 1.043 1.856 1.856 0 0 0 1.676-1.043l2.848-5.7 5.7-2.848a1.879 1.879 0 0 0 1.031-1.676 1.879 1.879 0 0 0-1.031-1.676l-5.7-2.848-2.848-5.719a1.945 1.945 0 0 0-3.352 0l-2.848 5.7-5.7 2.848a1.879 1.879 0 0 0-1.031 1.676 1.928 1.928 0 0 0 1.031 1.695zm7.934-3.141a1.9 1.9 0 0 0 .844-.844l1.441-2.895 1.441 2.895a1.956 1.956 0 0 0 .844.844l2.895 1.453-2.895 1.454a1.9 1.9 0 0 0-.844.844l-1.441 2.895-1.441-2.895a1.957 1.957 0 0 0-.844-.844L34.2-41.32zm19.16 12.727L54.375-33.8 52.5-30.047l-3.75 1.875L52.5-26.3l1.875 3.75 1.875-3.75L60-28.172z" transform="translate(-.006 52.509)"/>
</svg>
