<svg xmlns="http://www.w3.org/2000/svg" width="220" height="56" viewBox="0 0 220 56">
    <defs>
        <style>
            .cls-3{fill:#fff}
        </style>
    </defs>
    <g id="YouTube" transform="translate(-542 -293)">
        <rect id="Rectangle_2" width="220" height="56" fill="#f03735" rx="10" transform="translate(542 293)"/>
        <text id="Youtube-2" fill="#fff" font-family="Gilroy-Medium" font-size="20px" font-weight="500" letter-spacing="-0.03em" transform="translate(562 328)">
            <tspan x="0" y="0">Youtube</tspan>
        </text>
        <g id="youtube-3" transform="translate(712 310)">
            <path id="Path_5" d="M199.375 110.3l-6.628-3.626a1.217 1.217 0 0 0-1.8 1.068v7.19a1.215 1.215 0 0 0 1.792 1.068l6.628-3.564a1.217 1.217 0 0 0 .008-2.14zm-6.671 3.728v-5.374l4.953 2.71zm0 0" class="cls-3" transform="translate(-179.757 -100.282)"/>
            <path id="Path_6" d="M29.779 5.363v-.014a6.861 6.861 0 0 0-1.322-3.482A4.882 4.882 0 0 0 25.222.352l-.149-.018-.052-.006C21.055.04 15.065 0 15.005 0h-.011c-.06 0-6.05.04-10.051.328L4.89.334l-.14.017a4.759 4.759 0 0 0-3.214 1.562A7.19 7.19 0 0 0 .224 5.332v.031C.212 5.463 0 7.855 0 10.257V12.5c0 2.4.212 4.8.221 4.9v.015A6.794 6.794 0 0 0 1.54 20.85a4.982 4.982 0 0 0 3.341 1.495c.122.014.227.026.3.038l.069.01c2.29.218 9.47.325 9.774.33h.018c.06 0 6.049-.04 10.015-.328l.052-.005.168-.019a4.649 4.649 0 0 0 3.187-1.525 7.189 7.189 0 0 0 1.311-3.419v-.031c.009-.1.221-2.493.221-4.894v-2.245c.004-2.402-.208-4.793-.217-4.894zM28.242 12.5c0 2.223-.194 4.512-.212 4.722a5.581 5.581 0 0 1-.862 2.435 2.891 2.891 0 0 1-2.075.963l-.187.021c-3.836.277-9.6.32-9.865.322-.3 0-7.372-.113-9.593-.319-.114-.019-.237-.033-.366-.047a3.287 3.287 0 0 1-2.248-.939l-.016-.017a5.064 5.064 0 0 1-.845-2.411c-.014-.159-.213-2.475-.213-4.729v-2.244c0-2.22.194-4.507.212-4.721A5.468 5.468 0 0 1 2.833 3.1a3.033 3.033 0 0 1 2.119-1l.143-.017c3.892-.279 9.7-.32 9.905-.322s6.011.043 9.868.322l.155.018a3.148 3.148 0 0 1 2.153.975l.007.008a5.146 5.146 0 0 1 .845 2.446c.013.15.213 2.471.213 4.73zm0 0" class="cls-3"/>
        </g>
    </g>
</svg>
